<mxfile host="app.diagrams.net" modified="2023-01-19T22:06:01.208Z" agent="5.0 (X11; Linux x86_64) AppleWebKit/537.36 (KHTML, like Gecko) Chrome/109.0.0.0 Safari/537.36" etag="HeTzaQnVtpawhFnOntrm" version="20.8.8" type="github">
  <diagram name="Page-1" id="SlHl-llsIJA03aH7FXL4">
    <mxGraphModel dx="880" dy="502" grid="1" gridSize="10" guides="1" tooltips="1" connect="1" arrows="1" fold="1" page="1" pageScale="1" pageWidth="850" pageHeight="1100" math="0" shadow="0">
      <root>
        <mxCell id="0" />
        <mxCell id="1" parent="0" />
        <mxCell id="tPnSx3gv_iqBNqUpAzI4-3" style="edgeStyle=orthogonalEdgeStyle;rounded=0;orthogonalLoop=1;jettySize=auto;html=1;exitX=1;exitY=0.5;exitDx=0;exitDy=0;fontColor=#000000;" edge="1" parent="1" source="tPnSx3gv_iqBNqUpAzI4-1" target="tPnSx3gv_iqBNqUpAzI4-2">
          <mxGeometry relative="1" as="geometry" />
        </mxCell>
        <mxCell id="tPnSx3gv_iqBNqUpAzI4-1" value="&lt;b style=&quot;&quot;&gt;Canciones&lt;/b&gt;" style="rounded=1;whiteSpace=wrap;html=1;fillColor=#dae8fc;strokeColor=#6c8ebf;" vertex="1" parent="1">
          <mxGeometry x="80" y="40" width="120" height="60" as="geometry" />
        </mxCell>
        <mxCell id="tPnSx3gv_iqBNqUpAzI4-5" style="edgeStyle=orthogonalEdgeStyle;rounded=0;orthogonalLoop=1;jettySize=auto;html=1;exitX=1;exitY=0.5;exitDx=0;exitDy=0;entryX=0;entryY=0.5;entryDx=0;entryDy=0;fontColor=#000000;" edge="1" parent="1" source="tPnSx3gv_iqBNqUpAzI4-2" target="tPnSx3gv_iqBNqUpAzI4-4">
          <mxGeometry relative="1" as="geometry" />
        </mxCell>
        <mxCell id="tPnSx3gv_iqBNqUpAzI4-2" value="Pertenecen" style="rhombus;whiteSpace=wrap;html=1;fontColor=#ffffff;fillColor=#647687;strokeColor=#314354;" vertex="1" parent="1">
          <mxGeometry x="290" y="45" width="120" height="50" as="geometry" />
        </mxCell>
        <mxCell id="tPnSx3gv_iqBNqUpAzI4-4" value="&lt;b style=&quot;&quot;&gt;Géneros&lt;/b&gt;" style="rounded=1;whiteSpace=wrap;html=1;fillColor=#dae8fc;strokeColor=#6c8ebf;" vertex="1" parent="1">
          <mxGeometry x="500" y="40" width="120" height="60" as="geometry" />
        </mxCell>
        <mxCell id="tPnSx3gv_iqBNqUpAzI4-8" style="edgeStyle=orthogonalEdgeStyle;rounded=0;orthogonalLoop=1;jettySize=auto;html=1;exitX=0;exitY=0.5;exitDx=0;exitDy=0;entryX=1;entryY=0.5;entryDx=0;entryDy=0;fontColor=#000000;" edge="1" parent="1" source="tPnSx3gv_iqBNqUpAzI4-6" target="tPnSx3gv_iqBNqUpAzI4-7">
          <mxGeometry relative="1" as="geometry" />
        </mxCell>
        <mxCell id="tPnSx3gv_iqBNqUpAzI4-11" style="edgeStyle=orthogonalEdgeStyle;rounded=0;orthogonalLoop=1;jettySize=auto;html=1;exitX=1;exitY=0.5;exitDx=0;exitDy=0;entryX=0;entryY=0.5;entryDx=0;entryDy=0;fontColor=#000000;" edge="1" parent="1" source="tPnSx3gv_iqBNqUpAzI4-6" target="tPnSx3gv_iqBNqUpAzI4-10">
          <mxGeometry relative="1" as="geometry" />
        </mxCell>
        <mxCell id="tPnSx3gv_iqBNqUpAzI4-6" value="&lt;b style=&quot;&quot;&gt;Álbumes&lt;/b&gt;" style="rounded=1;whiteSpace=wrap;html=1;fillColor=#dae8fc;strokeColor=#6c8ebf;" vertex="1" parent="1">
          <mxGeometry x="290" y="190" width="120" height="60" as="geometry" />
        </mxCell>
        <mxCell id="tPnSx3gv_iqBNqUpAzI4-9" style="edgeStyle=orthogonalEdgeStyle;rounded=0;orthogonalLoop=1;jettySize=auto;html=1;entryX=0.5;entryY=1;entryDx=0;entryDy=0;fontColor=#000000;" edge="1" parent="1" source="tPnSx3gv_iqBNqUpAzI4-7" target="tPnSx3gv_iqBNqUpAzI4-1">
          <mxGeometry relative="1" as="geometry" />
        </mxCell>
        <mxCell id="tPnSx3gv_iqBNqUpAzI4-7" value="Tiene" style="rhombus;whiteSpace=wrap;html=1;fontColor=#ffffff;fillColor=#647687;strokeColor=#314354;" vertex="1" parent="1">
          <mxGeometry x="80" y="195" width="120" height="50" as="geometry" />
        </mxCell>
        <mxCell id="tPnSx3gv_iqBNqUpAzI4-12" style="edgeStyle=orthogonalEdgeStyle;rounded=0;orthogonalLoop=1;jettySize=auto;html=1;entryX=0.5;entryY=1;entryDx=0;entryDy=0;fontColor=#000000;" edge="1" parent="1" source="tPnSx3gv_iqBNqUpAzI4-10" target="tPnSx3gv_iqBNqUpAzI4-4">
          <mxGeometry relative="1" as="geometry" />
        </mxCell>
        <mxCell id="tPnSx3gv_iqBNqUpAzI4-10" value="Tiene" style="rhombus;whiteSpace=wrap;html=1;fontColor=#ffffff;fillColor=#647687;strokeColor=#314354;" vertex="1" parent="1">
          <mxGeometry x="500" y="195" width="120" height="50" as="geometry" />
        </mxCell>
        <mxCell id="tPnSx3gv_iqBNqUpAzI4-15" style="edgeStyle=orthogonalEdgeStyle;rounded=0;orthogonalLoop=1;jettySize=auto;html=1;exitX=0.5;exitY=0;exitDx=0;exitDy=0;entryX=0.5;entryY=1;entryDx=0;entryDy=0;fontColor=#000000;" edge="1" parent="1" source="tPnSx3gv_iqBNqUpAzI4-13" target="tPnSx3gv_iqBNqUpAzI4-14">
          <mxGeometry relative="1" as="geometry" />
        </mxCell>
        <mxCell id="tPnSx3gv_iqBNqUpAzI4-18" style="edgeStyle=orthogonalEdgeStyle;rounded=0;orthogonalLoop=1;jettySize=auto;html=1;exitX=0;exitY=0.5;exitDx=0;exitDy=0;entryX=1;entryY=0.5;entryDx=0;entryDy=0;fontColor=#000000;" edge="1" parent="1" source="tPnSx3gv_iqBNqUpAzI4-13" target="tPnSx3gv_iqBNqUpAzI4-17">
          <mxGeometry relative="1" as="geometry" />
        </mxCell>
        <mxCell id="tPnSx3gv_iqBNqUpAzI4-21" style="edgeStyle=orthogonalEdgeStyle;rounded=0;orthogonalLoop=1;jettySize=auto;html=1;fontColor=#000000;" edge="1" parent="1" source="tPnSx3gv_iqBNqUpAzI4-13" target="tPnSx3gv_iqBNqUpAzI4-20">
          <mxGeometry relative="1" as="geometry" />
        </mxCell>
        <mxCell id="tPnSx3gv_iqBNqUpAzI4-13" value="&lt;b style=&quot;&quot;&gt;Bandas&lt;/b&gt;" style="rounded=1;whiteSpace=wrap;html=1;fillColor=#dae8fc;strokeColor=#6c8ebf;" vertex="1" parent="1">
          <mxGeometry x="290" y="420" width="120" height="60" as="geometry" />
        </mxCell>
        <mxCell id="tPnSx3gv_iqBNqUpAzI4-16" style="edgeStyle=orthogonalEdgeStyle;rounded=0;orthogonalLoop=1;jettySize=auto;html=1;entryX=0.5;entryY=1;entryDx=0;entryDy=0;fontColor=#000000;" edge="1" parent="1" source="tPnSx3gv_iqBNqUpAzI4-14" target="tPnSx3gv_iqBNqUpAzI4-6">
          <mxGeometry relative="1" as="geometry" />
        </mxCell>
        <mxCell id="tPnSx3gv_iqBNqUpAzI4-14" value="Graban" style="rhombus;whiteSpace=wrap;html=1;fontColor=#ffffff;fillColor=#647687;strokeColor=#314354;" vertex="1" parent="1">
          <mxGeometry x="290" y="310" width="120" height="50" as="geometry" />
        </mxCell>
        <mxCell id="tPnSx3gv_iqBNqUpAzI4-19" style="edgeStyle=orthogonalEdgeStyle;rounded=0;orthogonalLoop=1;jettySize=auto;html=1;entryX=0;entryY=0.5;entryDx=0;entryDy=0;fontColor=#000000;" edge="1" parent="1" source="tPnSx3gv_iqBNqUpAzI4-17" target="tPnSx3gv_iqBNqUpAzI4-1">
          <mxGeometry relative="1" as="geometry">
            <Array as="points">
              <mxPoint x="40" y="450" />
              <mxPoint x="40" y="70" />
            </Array>
          </mxGeometry>
        </mxCell>
        <mxCell id="tPnSx3gv_iqBNqUpAzI4-17" value="Componen" style="rhombus;whiteSpace=wrap;html=1;fontColor=#ffffff;fillColor=#647687;strokeColor=#314354;" vertex="1" parent="1">
          <mxGeometry x="80" y="425" width="120" height="50" as="geometry" />
        </mxCell>
        <mxCell id="tPnSx3gv_iqBNqUpAzI4-23" style="edgeStyle=orthogonalEdgeStyle;rounded=0;orthogonalLoop=1;jettySize=auto;html=1;entryX=0;entryY=0.5;entryDx=0;entryDy=0;fontColor=#000000;" edge="1" parent="1" source="tPnSx3gv_iqBNqUpAzI4-20" target="tPnSx3gv_iqBNqUpAzI4-22">
          <mxGeometry relative="1" as="geometry" />
        </mxCell>
        <mxCell id="tPnSx3gv_iqBNqUpAzI4-20" value="Tiene" style="rhombus;whiteSpace=wrap;html=1;fontColor=#ffffff;fillColor=#647687;strokeColor=#314354;" vertex="1" parent="1">
          <mxGeometry x="500" y="425" width="120" height="50" as="geometry" />
        </mxCell>
        <mxCell id="tPnSx3gv_iqBNqUpAzI4-22" value="&lt;b style=&quot;&quot;&gt;Integrantes&lt;/b&gt;" style="rounded=1;whiteSpace=wrap;html=1;fillColor=#dae8fc;strokeColor=#6c8ebf;" vertex="1" parent="1">
          <mxGeometry x="710" y="420" width="120" height="60" as="geometry" />
        </mxCell>
        <mxCell id="tPnSx3gv_iqBNqUpAzI4-24" value="&lt;b&gt;N:N&lt;/b&gt;" style="text;html=1;strokeColor=none;fillColor=none;align=center;verticalAlign=middle;whiteSpace=wrap;rounded=0;fontColor=#000000;" vertex="1" parent="1">
          <mxGeometry x="320" y="15" width="60" height="30" as="geometry" />
        </mxCell>
        <mxCell id="tPnSx3gv_iqBNqUpAzI4-25" value="&lt;b&gt;N:N&lt;/b&gt;" style="text;html=1;strokeColor=none;fillColor=none;align=center;verticalAlign=middle;whiteSpace=wrap;rounded=0;fontColor=#000000;" vertex="1" parent="1">
          <mxGeometry x="620" y="205" width="60" height="30" as="geometry" />
        </mxCell>
        <mxCell id="tPnSx3gv_iqBNqUpAzI4-26" value="&lt;b&gt;N:N&lt;/b&gt;" style="text;html=1;strokeColor=none;fillColor=none;align=center;verticalAlign=middle;whiteSpace=wrap;rounded=0;fontColor=#000000;" vertex="1" parent="1">
          <mxGeometry x="530" y="395" width="60" height="30" as="geometry" />
        </mxCell>
        <mxCell id="tPnSx3gv_iqBNqUpAzI4-27" value="&lt;b&gt;1:N&lt;/b&gt;" style="text;html=1;strokeColor=none;fillColor=none;align=center;verticalAlign=middle;whiteSpace=wrap;rounded=0;fontColor=#000000;" vertex="1" parent="1">
          <mxGeometry x="410" y="320" width="60" height="30" as="geometry" />
        </mxCell>
        <mxCell id="tPnSx3gv_iqBNqUpAzI4-28" value="&lt;b&gt;1:N&lt;/b&gt;" style="text;html=1;strokeColor=none;fillColor=none;align=center;verticalAlign=middle;whiteSpace=wrap;rounded=0;fontColor=#000000;" vertex="1" parent="1">
          <mxGeometry x="110" y="395" width="60" height="30" as="geometry" />
        </mxCell>
        <mxCell id="tPnSx3gv_iqBNqUpAzI4-29" value="&lt;b&gt;1:N&lt;/b&gt;" style="text;html=1;strokeColor=none;fillColor=none;align=center;verticalAlign=middle;whiteSpace=wrap;rounded=0;fontColor=#000000;" vertex="1" parent="1">
          <mxGeometry x="40" y="205" width="60" height="30" as="geometry" />
        </mxCell>
      </root>
    </mxGraphModel>
  </diagram>
</mxfile>
